<svg width="36" height="40" viewBox="0 0 36 40" fill="none" xmlns="http://www.w3.org/2000/svg">
<path d="M16.3636 7.27273V0H19.6364V7.27273H16.3636ZM27.2455 12.2727L24.9955 9.77273L29.5773 4.54545L31.8682 7.13636L27.2455 12.2727ZM29.4545 21.8182V18.1818H36V21.8182H29.4545ZM16.3636 40V32.7273H19.6364V40H16.3636ZM8.75455 12.1818L4.09091 7.13636L6.42273 4.59091L11.0455 9.72727L8.75455 12.1818ZM29.5364 35.4545L24.9955 30.2273L27.2045 27.7727L31.8682 32.7727L29.5364 35.4545ZM0 21.8182V18.1818H6.54545V21.8182H0ZM6.42273 35.4545L4.13182 32.8636L8.71364 27.7727L9.9 29L11.0864 30.2727L6.42273 35.4545ZM18 30.9091C15.2727 30.9091 12.9545 29.8485 11.0455 27.7273C9.13636 25.6061 8.18182 23.0303 8.18182 20C8.18182 16.9697 9.13636 14.3939 11.0455 12.2727C12.9545 10.1515 15.2727 9.09091 18 9.09091C20.7273 9.09091 23.0455 10.1515 24.9545 12.2727C26.8636 14.3939 27.8182 16.9697 27.8182 20C27.8182 23.0303 26.8636 25.6061 24.9545 27.7273C23.0455 29.8485 20.7273 30.9091 18 30.9091ZM18 27.2727C19.8 27.2727 21.3409 26.5606 22.6227 25.1364C23.9045 23.7121 24.5455 22 24.5455 20C24.5455 18 23.9045 16.2879 22.6227 14.8636C21.3409 13.4394 19.8 12.7273 18 12.7273C16.2 12.7273 14.6591 13.4394 13.3773 14.8636C12.0955 16.2879 11.4545 18 11.4545 20C11.4545 22 12.0955 23.7121 13.3773 25.1364C14.6591 26.5606 16.2 27.2727 18 27.2727ZM18 27.2727C16.2 27.2727 14.6591 26.5606 13.3773 25.1364C12.0955 23.7121 11.4545 22 11.4545 20C11.4545 18 12.0955 16.2879 13.3773 14.8636C14.6591 13.4394 16.2 12.7273 18 12.7273C19.8 12.7273 21.3409 13.4394 22.6227 14.8636C23.9045 16.2879 24.5455 18 24.5455 20C24.5455 22 23.9045 23.7121 22.6227 25.1364C21.3409 26.5606 19.8 27.2727 18 27.2727Z" fill="white"/>
</svg>
