<svg width="24" height="25" viewBox="0 0 24 25" fill="none" xmlns="http://www.w3.org/2000/svg">
<path fill-rule="evenodd" clip-rule="evenodd" d="M11.9677 0C5.35555 0 0 5.58271 0 12.4753C0 17.9957 3.42576 22.6583 8.18292 24.3113C8.78131 24.4205 9.0057 24.0462 9.0057 23.7187C9.0057 23.4224 8.99075 22.44 8.99075 21.3952C5.98386 21.9722 5.20596 20.6311 4.9666 19.9294C4.83196 19.5707 4.24854 18.4635 3.73991 18.1672C3.32104 17.9333 2.72265 17.3563 3.72495 17.3407C4.66741 17.3251 5.34059 18.2452 5.56499 18.6194C6.64208 20.5063 8.36244 19.9761 9.05058 19.6487C9.1553 18.8378 9.46945 18.292 9.81353 17.9801C7.15071 17.6682 4.36822 16.5922 4.36822 11.8204C4.36822 10.4637 4.83196 9.34091 5.59491 8.46764C5.47523 8.15575 5.05636 6.87703 5.71458 5.16167C5.71458 5.16167 6.71688 4.83419 9.0057 6.44039C9.96312 6.1597 10.9804 6.01935 11.9976 6.01935C13.0149 6.01935 14.0321 6.1597 14.9896 6.44039C17.2784 4.8186 18.2807 5.16167 18.2807 5.16167C18.9389 6.87703 18.52 8.15575 18.4004 8.46764C19.1633 9.34091 19.6271 10.4481 19.6271 11.8204C19.6271 16.6078 16.8296 17.6682 14.1668 17.9801C14.6006 18.3699 14.9746 19.1185 14.9746 20.288C14.9746 21.9566 14.9596 23.2977 14.9596 23.7187C14.9596 24.0462 15.184 24.4361 15.7824 24.3113C18.1582 23.4752 20.2226 21.8835 21.6852 19.7603C23.1477 17.6371 23.9347 15.0892 23.9354 12.4753C23.9354 5.58271 18.5799 0 11.9677 0Z" fill="#3A6073"/>
</svg>
