<svg width="289" height="241" viewBox="0 0 289 241" fill="none" xmlns="http://www.w3.org/2000/svg">
<rect width="289" height="241" fill="#3A6073"/>
<path d="M60.908 48.152L57.704 51.428C61.916 54.092 68.756 59.132 71.888 62.084L75.344 57.98C71.996 55.316 65.336 50.708 60.908 48.152ZM77.864 42.032L74.192 39.764C73.364 40.016 72.176 40.196 71.06 40.196H60.8L59.144 44.264H71.312C70.628 47.072 68.396 51.212 65.984 54.056C62.888 57.656 58.604 61.436 51.08 63.776L55.256 67.376C62.132 64.784 66.74 60.752 70.124 56.54C73.364 52.544 75.56 47.936 76.64 44.624C76.964 43.724 77.432 42.716 77.864 42.032ZM65.948 36.488L60.728 34.868C60.404 36.128 59.648 37.784 59.108 38.648C57.272 41.78 53.96 46.712 47.66 50.6L51.512 53.588C56.696 50.024 61.304 44.516 63.716 40.16C64.148 39.404 65.084 37.748 65.948 36.488ZM118.652 36.128H113.324C113.468 36.992 113.612 38.648 113.612 39.44C113.576 48.944 111.92 55.064 107.204 59.744C105.764 61.22 103.964 62.408 102.452 63.236L106.664 66.62C114.62 60.968 118.004 53.66 118.4 39.368C118.436 38.504 118.544 36.992 118.652 36.128ZM130.856 43.868L127.76 42.32C126.896 42.5 125.96 42.572 125.024 42.572H108.356C106.988 42.572 105.152 42.5 103.64 42.32V47.072C105.152 46.928 107.168 46.892 108.392 46.892H125.96C125.96 50.78 125.456 57.98 124.412 60.248C124.052 61.148 123.548 61.544 122.396 61.544C120.956 61.544 119.12 61.328 117.32 61.04L117.896 65.828C119.66 65.972 121.784 66.152 123.872 66.152C126.32 66.152 127.724 65.18 128.48 63.38C130.028 59.708 130.496 49.664 130.64 45.74C130.64 45.344 130.748 44.444 130.856 43.868ZM160.88 53.156C159.62 56.324 157.496 60.212 155.264 63.128L160.304 65.252C162.176 62.552 164.336 58.484 165.596 54.992C166.856 51.608 168.188 46.676 168.656 44.156C168.836 43.328 169.232 41.564 169.52 40.556L164.3 39.476C163.832 44.048 162.464 49.124 160.88 53.156ZM178.628 52.4C180.068 56.288 181.4 60.824 182.408 65.108L187.7 63.38C186.728 59.816 184.82 54.056 183.524 50.816C182.156 47.324 179.708 41.78 178.196 39.008L173.408 40.556C174.956 43.292 177.26 48.62 178.628 52.4ZM218.588 36.524L215.996 40.484C218.372 41.816 222.116 44.228 224.132 45.632L226.796 41.672C224.924 40.34 220.964 37.82 218.588 36.524ZM211.928 62.084L214.628 66.8C217.796 66.224 222.98 64.424 226.652 62.372C232.52 58.952 237.632 54.416 240.944 49.412L238.172 44.516C235.328 49.664 230.288 54.596 224.168 58.016C220.244 60.176 215.96 61.4 211.928 62.084ZM213.044 44.732L210.452 48.692C212.864 49.988 216.608 52.4 218.624 53.84L221.288 49.808C219.416 48.476 215.456 46.028 213.044 44.732ZM60.908 94.152L57.704 97.428C61.916 100.092 68.756 105.132 71.888 108.084L75.344 103.98C71.996 101.316 65.336 96.708 60.908 94.152ZM77.864 88.032L74.192 85.764C73.364 86.016 72.176 86.196 71.06 86.196H60.8L59.144 90.264H71.312C70.628 93.072 68.396 97.212 65.984 100.056C62.888 103.656 58.604 107.436 51.08 109.776L55.256 113.376C62.132 110.784 66.74 106.752 70.124 102.54C73.364 98.544 75.56 93.936 76.64 90.624C76.964 89.724 77.432 88.716 77.864 88.032ZM65.948 82.488L60.728 80.868C60.404 82.128 59.648 83.784 59.108 84.648C57.272 87.78 53.96 92.712 47.66 96.6L51.512 99.588C56.696 96.024 61.304 90.516 63.716 86.16C64.148 85.404 65.084 83.748 65.948 82.488ZM118.652 82.128H113.324C113.468 82.992 113.612 84.648 113.612 85.44C113.576 94.944 111.92 101.064 107.204 105.744C105.764 107.22 103.964 108.408 102.452 109.236L106.664 112.62C114.62 106.968 118.004 99.66 118.4 85.368C118.436 84.504 118.544 82.992 118.652 82.128ZM130.856 89.868L127.76 88.32C126.896 88.5 125.96 88.572 125.024 88.572H108.356C106.988 88.572 105.152 88.5 103.64 88.32V93.072C105.152 92.928 107.168 92.892 108.392 92.892H125.96C125.96 96.78 125.456 103.98 124.412 106.248C124.052 107.148 123.548 107.544 122.396 107.544C120.956 107.544 119.12 107.328 117.32 107.04L117.896 111.828C119.66 111.972 121.784 112.152 123.872 112.152C126.32 112.152 127.724 111.18 128.48 109.38C130.028 105.708 130.496 95.664 130.64 91.74C130.64 91.344 130.748 90.444 130.856 89.868ZM182.516 87.636L178.736 85.764C178.124 86.052 176.324 86.232 175.388 86.232C173.228 86.232 166.316 86.232 164.048 86.232C162.824 86.232 161.168 86.124 159.98 85.98V91.056C161.276 90.948 162.608 90.876 164.084 90.876C166.352 90.876 173.696 90.876 176.504 90.876C176.396 93.468 174.848 102.72 174.272 105.96H179.564C180.068 102.684 181.652 92.928 182.12 89.292C182.156 89.004 182.336 88.14 182.516 87.636ZM156.056 104.484V109.74C157.244 109.596 158.504 109.524 159.62 109.524H183.596C184.46 109.524 185.972 109.596 186.98 109.74V104.484C186.044 104.628 184.892 104.772 183.596 104.772H159.62C158.504 104.772 157.208 104.7 156.056 104.484ZM220.604 85.296C221.18 88.212 224.672 106.356 225.212 109.596C225.464 110.676 225.536 111.9 225.716 113.232L230.9 112.332C230.576 111.144 230.252 109.848 230 108.804C229.244 105.132 225.68 86.916 225.32 84.54C225.176 83.676 225.032 82.452 224.96 81.768L219.848 82.596C220.136 83.424 220.388 84.288 220.604 85.296ZM210.776 89.904L211.748 94.872C212.972 94.548 213.908 94.332 215.024 94.116C217.724 93.648 230.108 91.668 233.924 91.056C235.004 90.912 236.48 90.696 237.272 90.66L236.372 85.908C235.508 86.16 234.14 86.484 233.024 86.664C229.784 87.312 217.184 89.256 214.124 89.616C212.972 89.76 211.892 89.832 210.776 89.904ZM210.812 100.452L211.82 105.276C212.612 105.06 213.872 104.844 215.42 104.556C218.984 103.872 231.944 101.748 236.516 101.064C237.848 100.848 239.324 100.596 240.296 100.524L239.36 95.772C238.388 96.024 237.056 96.348 235.652 96.6C231.512 97.392 218.372 99.516 214.52 100.056C213.404 100.236 211.748 100.416 210.812 100.452ZM66.776 132.34L61.844 132.196C61.484 135.976 60.692 140.116 59.648 143.5C58.136 148.36 56.768 150.664 55.22 150.664C53.852 150.664 52.412 148.9 52.412 145.264C52.412 140.728 56.588 134.5 64.22 134.5C70.448 134.5 73.976 138.532 73.976 144.184C73.976 149.476 70.376 152.752 65.804 153.868C64.832 154.084 63.824 154.264 62.42 154.444L65.156 158.692C74.228 157.288 78.872 151.924 78.872 144.364C78.872 136.48 73.22 130.288 64.328 130.288C55.004 130.288 47.768 137.416 47.768 145.696C47.768 151.78 51.08 156.208 55.112 156.208C59.036 156.208 62.132 151.744 64.292 144.472C65.552 140.224 66.272 136.012 66.776 132.34ZM127.4 130.036C127.4 128.956 128.264 128.056 129.344 128.056C130.424 128.056 131.324 128.956 131.324 130.036C131.324 131.116 130.424 131.98 129.344 131.98C128.264 131.98 127.4 131.116 127.4 130.036ZM125.204 130.036C125.204 132.34 127.04 134.176 129.344 134.176C131.648 134.176 133.52 132.34 133.52 130.036C133.52 127.732 131.648 125.86 129.344 125.86C127.04 125.86 125.204 127.732 125.204 130.036ZM120.236 128.596H114.908C115.016 129.244 115.196 130.792 115.196 131.728C115.196 133.924 115.196 137.776 115.196 139.036C115.196 140.728 115.196 152.104 115.16 153.472C115.124 154.408 114.8 154.732 113.864 154.732C112.964 154.732 111.38 154.624 109.868 154.336L110.3 158.8C112.1 159.016 114.224 159.088 116.132 159.088C118.688 159.088 119.912 157.792 119.912 155.704C119.912 152.68 119.912 141.952 119.912 139.036C119.912 136.948 119.912 133.888 119.912 131.764C119.912 130.864 120.128 129.1 120.236 128.596ZM102.596 134.356V139.108C103.604 139 104.972 138.964 106.052 138.964C108.428 138.964 125.744 138.964 128.336 138.964C129.308 138.964 130.712 139 131.828 139.108V134.392C130.856 134.5 129.308 134.608 128.3 134.608C125.708 134.608 108.248 134.608 106.052 134.608C104.936 134.608 103.676 134.5 102.596 134.356ZM111.776 144.112L107.672 142.168C106.196 145.228 103.316 149.188 100.904 151.492L104.828 154.12C106.772 151.996 110.12 147.28 111.776 144.112ZM127.22 142.06L123.296 144.184C125.06 146.416 127.616 150.772 129.164 153.868L133.376 151.528C131.936 148.9 129.056 144.364 127.22 142.06ZM156.776 140.332V146.02C158.144 145.912 160.556 145.804 162.572 145.804C166.82 145.804 178.664 145.804 181.94 145.804C183.452 145.804 185.288 145.984 186.152 146.02V140.332C185.18 140.404 183.596 140.584 181.904 140.584C178.7 140.584 166.82 140.584 162.572 140.584C160.7 140.584 158.108 140.44 156.776 140.332ZM218.768 153.58C218.768 154.984 218.66 157.18 218.408 158.584H224.06C223.88 157.108 223.736 154.588 223.736 153.58C223.736 150.916 223.7 136.84 223.7 132.88C223.7 131.368 223.88 129.82 224.024 128.524H218.408C218.66 129.82 218.768 131.584 218.768 132.88C218.768 135.904 218.768 150.808 218.768 153.58ZM222.656 137.848V143.032C226.58 144.328 232.628 146.632 236.732 148.756L238.748 143.752C235.22 142.024 227.444 139.18 222.656 137.848ZM77.504 179.06L73.94 176.792C72.968 177.008 71.816 177.044 71.132 177.044C69.116 177.044 57.164 177.044 54.464 177.044C53.276 177.044 51.26 176.9 50.18 176.756V181.832C51.116 181.796 52.808 181.688 54.464 181.688C57.164 181.688 69.044 181.688 71.24 181.688C70.736 184.784 69.404 188.852 66.992 191.876C64.076 195.512 60.044 198.644 52.88 200.3L56.804 204.62C63.248 202.568 68.036 198.968 71.276 194.684C74.3 190.652 75.884 185.072 76.712 181.544C76.892 180.788 77.144 179.744 77.504 179.06ZM123.728 180.608H119.048C119.228 181.616 119.336 182.732 119.336 183.632C119.552 188.348 119.696 196.772 119.696 200.804C119.696 201.56 119.408 201.92 118.724 201.92C117.788 201.92 116.06 201.812 114.62 201.632L114.872 205.736C116.492 205.844 118.724 205.916 120.452 205.916C122.576 205.916 124.016 204.62 123.98 202.748C123.908 197.024 123.692 188.348 123.548 183.632C123.548 182.66 123.584 181.508 123.728 180.608ZM106.376 185.576V190.04C107.384 189.968 108.716 189.896 109.76 189.896C111.308 189.896 126.932 189.896 128.048 189.896C128.804 189.896 129.956 189.932 130.784 189.968V185.576C130.172 185.684 128.768 185.792 127.832 185.792C126.428 185.792 111.668 185.792 109.652 185.792C108.68 185.792 107.24 185.72 106.376 185.576ZM104.828 199.58L107.96 203.144C113 200.516 118.832 195.44 120.704 192.056L120.632 188.564L118.292 188.528C116.348 192.056 110.624 196.916 104.828 199.58ZM182.372 175.064H176.936C177.08 176.072 177.188 177.224 177.188 178.7C177.188 180.248 177.188 183.704 177.188 185.504C177.188 191.12 176.684 193.82 174.236 196.52C172.04 198.86 169.16 200.228 165.56 201.056L169.34 205.052C171.968 204.188 175.676 202.46 178.052 199.832C180.752 196.88 182.264 193.568 182.264 185.792C182.264 184.028 182.264 180.536 182.264 178.7C182.264 177.224 182.3 176.072 182.372 175.064ZM165.704 175.388H160.484C160.592 176.216 160.628 177.476 160.628 178.124C160.628 179.708 160.628 188.204 160.628 190.256C160.628 191.372 160.52 192.776 160.448 193.424H165.704C165.632 192.596 165.56 191.192 165.56 190.292C165.56 188.276 165.56 179.708 165.56 178.124C165.56 177.008 165.632 176.216 165.704 175.388ZM232.124 174.164H226.976C227.156 175.136 227.228 176.288 227.336 177.836C227.624 183.776 227.696 193.64 227.696 198.608C227.696 199.616 227.372 200.084 226.472 200.084C225.248 200.084 223.304 199.94 221.648 199.688L222.08 204.368C224.132 204.512 226.112 204.584 228.308 204.584C231.044 204.584 232.376 203.252 232.34 200.948C232.268 193.676 232.016 183.776 231.908 177.836C231.872 176.684 231.944 175.316 232.124 174.164ZM211.568 180.176V184.964C212.828 184.892 214.34 184.82 215.672 184.82C217.652 184.82 235.256 184.82 236.66 184.82C237.632 184.82 239.036 184.856 240.152 184.892V180.14C239.288 180.248 237.596 180.428 236.444 180.428C234.68 180.428 218.048 180.428 215.528 180.428C214.304 180.428 212.576 180.284 211.568 180.176ZM209.624 197.312L212.936 201.056C219.128 197.78 225.5 192.128 228.416 187.772L228.38 183.92H226.04C223.448 188.168 217.148 193.712 209.624 197.312Z" fill="#D9D9D9"/>
</svg>
