<svg width="310" height="280" viewBox="0 0 310 280" fill="none" xmlns="http://www.w3.org/2000/svg">
<rect x="2.5" y="2.5" width="305" height="265" stroke="#3A6073" stroke-width="5"/>
<path d="M71.408 68.152L68.204 71.428C72.416 74.092 79.256 79.132 82.388 82.084L85.844 77.98C82.496 75.316 75.836 70.708 71.408 68.152ZM88.364 62.032L84.692 59.764C83.864 60.016 82.676 60.196 81.56 60.196H71.3L69.644 64.264H81.812C81.128 67.072 78.896 71.212 76.484 74.056C73.388 77.656 69.104 81.436 61.58 83.776L65.756 87.376C72.632 84.784 77.24 80.752 80.624 76.54C83.864 72.544 86.06 67.936 87.14 64.624C87.464 63.724 87.932 62.716 88.364 62.032ZM76.448 56.488L71.228 54.868C70.904 56.128 70.148 57.784 69.608 58.648C67.772 61.78 64.46 66.712 58.16 70.6L62.012 73.588C67.196 70.024 71.804 64.516 74.216 60.16C74.648 59.404 75.584 57.748 76.448 56.488ZM129.152 56.128H123.824C123.968 56.992 124.112 58.648 124.112 59.44C124.076 68.944 122.42 75.064 117.704 79.744C116.264 81.22 114.464 82.408 112.952 83.236L117.164 86.62C125.12 80.968 128.504 73.66 128.9 59.368C128.936 58.504 129.044 56.992 129.152 56.128ZM141.356 63.868L138.26 62.32C137.396 62.5 136.46 62.572 135.524 62.572H118.856C117.488 62.572 115.652 62.5 114.14 62.32V67.072C115.652 66.928 117.668 66.892 118.892 66.892H136.46C136.46 70.78 135.956 77.98 134.912 80.248C134.552 81.148 134.048 81.544 132.896 81.544C131.456 81.544 129.62 81.328 127.82 81.04L128.396 85.828C130.16 85.972 132.284 86.152 134.372 86.152C136.82 86.152 138.224 85.18 138.98 83.38C140.528 79.708 140.996 69.664 141.14 65.74C141.14 65.344 141.248 64.444 141.356 63.868ZM171.38 73.156C170.12 76.324 167.996 80.212 165.764 83.128L170.804 85.252C172.676 82.552 174.836 78.484 176.096 74.992C177.356 71.608 178.688 66.676 179.156 64.156C179.336 63.328 179.732 61.564 180.02 60.556L174.8 59.476C174.332 64.048 172.964 69.124 171.38 73.156ZM189.128 72.4C190.568 76.288 191.9 80.824 192.908 85.108L198.2 83.38C197.228 79.816 195.32 74.056 194.024 70.816C192.656 67.324 190.208 61.78 188.696 59.008L183.908 60.556C185.456 63.292 187.76 68.62 189.128 72.4ZM229.088 56.524L226.496 60.484C228.872 61.816 232.616 64.228 234.632 65.632L237.296 61.672C235.424 60.34 231.464 57.82 229.088 56.524ZM222.428 82.084L225.128 86.8C228.296 86.224 233.48 84.424 237.152 82.372C243.02 78.952 248.132 74.416 251.444 69.412L248.672 64.516C245.828 69.664 240.788 74.596 234.668 78.016C230.744 80.176 226.46 81.4 222.428 82.084ZM223.544 64.732L220.952 68.692C223.364 69.988 227.108 72.4 229.124 73.84L231.788 69.808C229.916 68.476 225.956 66.028 223.544 64.732ZM71.408 114.152L68.204 117.428C72.416 120.092 79.256 125.132 82.388 128.084L85.844 123.98C82.496 121.316 75.836 116.708 71.408 114.152ZM88.364 108.032L84.692 105.764C83.864 106.016 82.676 106.196 81.56 106.196H71.3L69.644 110.264H81.812C81.128 113.072 78.896 117.212 76.484 120.056C73.388 123.656 69.104 127.436 61.58 129.776L65.756 133.376C72.632 130.784 77.24 126.752 80.624 122.54C83.864 118.544 86.06 113.936 87.14 110.624C87.464 109.724 87.932 108.716 88.364 108.032ZM76.448 102.488L71.228 100.868C70.904 102.128 70.148 103.784 69.608 104.648C67.772 107.78 64.46 112.712 58.16 116.6L62.012 119.588C67.196 116.024 71.804 110.516 74.216 106.16C74.648 105.404 75.584 103.748 76.448 102.488ZM129.152 102.128H123.824C123.968 102.992 124.112 104.648 124.112 105.44C124.076 114.944 122.42 121.064 117.704 125.744C116.264 127.22 114.464 128.408 112.952 129.236L117.164 132.62C125.12 126.968 128.504 119.66 128.9 105.368C128.936 104.504 129.044 102.992 129.152 102.128ZM141.356 109.868L138.26 108.32C137.396 108.5 136.46 108.572 135.524 108.572H118.856C117.488 108.572 115.652 108.5 114.14 108.32V113.072C115.652 112.928 117.668 112.892 118.892 112.892H136.46C136.46 116.78 135.956 123.98 134.912 126.248C134.552 127.148 134.048 127.544 132.896 127.544C131.456 127.544 129.62 127.328 127.82 127.04L128.396 131.828C130.16 131.972 132.284 132.152 134.372 132.152C136.82 132.152 138.224 131.18 138.98 129.38C140.528 125.708 140.996 115.664 141.14 111.74C141.14 111.344 141.248 110.444 141.356 109.868ZM193.016 107.636L189.236 105.764C188.624 106.052 186.824 106.232 185.888 106.232C183.728 106.232 176.816 106.232 174.548 106.232C173.324 106.232 171.668 106.124 170.48 105.98V111.056C171.776 110.948 173.108 110.876 174.584 110.876C176.852 110.876 184.196 110.876 187.004 110.876C186.896 113.468 185.348 122.72 184.772 125.96H190.064C190.568 122.684 192.152 112.928 192.62 109.292C192.656 109.004 192.836 108.14 193.016 107.636ZM166.556 124.484V129.74C167.744 129.596 169.004 129.524 170.12 129.524H194.096C194.96 129.524 196.472 129.596 197.48 129.74V124.484C196.544 124.628 195.392 124.772 194.096 124.772H170.12C169.004 124.772 167.708 124.7 166.556 124.484ZM231.104 105.296C231.68 108.212 235.172 126.356 235.712 129.596C235.964 130.676 236.036 131.9 236.216 133.232L241.4 132.332C241.076 131.144 240.752 129.848 240.5 128.804C239.744 125.132 236.18 106.916 235.82 104.54C235.676 103.676 235.532 102.452 235.46 101.768L230.348 102.596C230.636 103.424 230.888 104.288 231.104 105.296ZM221.276 109.904L222.248 114.872C223.472 114.548 224.408 114.332 225.524 114.116C228.224 113.648 240.608 111.668 244.424 111.056C245.504 110.912 246.98 110.696 247.772 110.66L246.872 105.908C246.008 106.16 244.64 106.484 243.524 106.664C240.284 107.312 227.684 109.256 224.624 109.616C223.472 109.76 222.392 109.832 221.276 109.904ZM221.312 120.452L222.32 125.276C223.112 125.06 224.372 124.844 225.92 124.556C229.484 123.872 242.444 121.748 247.016 121.064C248.348 120.848 249.824 120.596 250.796 120.524L249.86 115.772C248.888 116.024 247.556 116.348 246.152 116.6C242.012 117.392 228.872 119.516 225.02 120.056C223.904 120.236 222.248 120.416 221.312 120.452ZM77.276 152.34L72.344 152.196C71.984 155.976 71.192 160.116 70.148 163.5C68.636 168.36 67.268 170.664 65.72 170.664C64.352 170.664 62.912 168.9 62.912 165.264C62.912 160.728 67.088 154.5 74.72 154.5C80.948 154.5 84.476 158.532 84.476 164.184C84.476 169.476 80.876 172.752 76.304 173.868C75.332 174.084 74.324 174.264 72.92 174.444L75.656 178.692C84.728 177.288 89.372 171.924 89.372 164.364C89.372 156.48 83.72 150.288 74.828 150.288C65.504 150.288 58.268 157.416 58.268 165.696C58.268 171.78 61.58 176.208 65.612 176.208C69.536 176.208 72.632 171.744 74.792 164.472C76.052 160.224 76.772 156.012 77.276 152.34ZM137.9 150.036C137.9 148.956 138.764 148.056 139.844 148.056C140.924 148.056 141.824 148.956 141.824 150.036C141.824 151.116 140.924 151.98 139.844 151.98C138.764 151.98 137.9 151.116 137.9 150.036ZM135.704 150.036C135.704 152.34 137.54 154.176 139.844 154.176C142.148 154.176 144.02 152.34 144.02 150.036C144.02 147.732 142.148 145.86 139.844 145.86C137.54 145.86 135.704 147.732 135.704 150.036ZM130.736 148.596H125.408C125.516 149.244 125.696 150.792 125.696 151.728C125.696 153.924 125.696 157.776 125.696 159.036C125.696 160.728 125.696 172.104 125.66 173.472C125.624 174.408 125.3 174.732 124.364 174.732C123.464 174.732 121.88 174.624 120.368 174.336L120.8 178.8C122.6 179.016 124.724 179.088 126.632 179.088C129.188 179.088 130.412 177.792 130.412 175.704C130.412 172.68 130.412 161.952 130.412 159.036C130.412 156.948 130.412 153.888 130.412 151.764C130.412 150.864 130.628 149.1 130.736 148.596ZM113.096 154.356V159.108C114.104 159 115.472 158.964 116.552 158.964C118.928 158.964 136.244 158.964 138.836 158.964C139.808 158.964 141.212 159 142.328 159.108V154.392C141.356 154.5 139.808 154.608 138.8 154.608C136.208 154.608 118.748 154.608 116.552 154.608C115.436 154.608 114.176 154.5 113.096 154.356ZM122.276 164.112L118.172 162.168C116.696 165.228 113.816 169.188 111.404 171.492L115.328 174.12C117.272 171.996 120.62 167.28 122.276 164.112ZM137.72 162.06L133.796 164.184C135.56 166.416 138.116 170.772 139.664 173.868L143.876 171.528C142.436 168.9 139.556 164.364 137.72 162.06ZM167.276 160.332V166.02C168.644 165.912 171.056 165.804 173.072 165.804C177.32 165.804 189.164 165.804 192.44 165.804C193.952 165.804 195.788 165.984 196.652 166.02V160.332C195.68 160.404 194.096 160.584 192.404 160.584C189.2 160.584 177.32 160.584 173.072 160.584C171.2 160.584 168.608 160.44 167.276 160.332ZM229.268 173.58C229.268 174.984 229.16 177.18 228.908 178.584H234.56C234.38 177.108 234.236 174.588 234.236 173.58C234.236 170.916 234.2 156.84 234.2 152.88C234.2 151.368 234.38 149.82 234.524 148.524H228.908C229.16 149.82 229.268 151.584 229.268 152.88C229.268 155.904 229.268 170.808 229.268 173.58ZM233.156 157.848V163.032C237.08 164.328 243.128 166.632 247.232 168.756L249.248 163.752C245.72 162.024 237.944 159.18 233.156 157.848ZM88.004 199.06L84.44 196.792C83.468 197.008 82.316 197.044 81.632 197.044C79.616 197.044 67.664 197.044 64.964 197.044C63.776 197.044 61.76 196.9 60.68 196.756V201.832C61.616 201.796 63.308 201.688 64.964 201.688C67.664 201.688 79.544 201.688 81.74 201.688C81.236 204.784 79.904 208.852 77.492 211.876C74.576 215.512 70.544 218.644 63.38 220.3L67.304 224.62C73.748 222.568 78.536 218.968 81.776 214.684C84.8 210.652 86.384 205.072 87.212 201.544C87.392 200.788 87.644 199.744 88.004 199.06ZM134.228 200.608H129.548C129.728 201.616 129.836 202.732 129.836 203.632C130.052 208.348 130.196 216.772 130.196 220.804C130.196 221.56 129.908 221.92 129.224 221.92C128.288 221.92 126.56 221.812 125.12 221.632L125.372 225.736C126.992 225.844 129.224 225.916 130.952 225.916C133.076 225.916 134.516 224.62 134.48 222.748C134.408 217.024 134.192 208.348 134.048 203.632C134.048 202.66 134.084 201.508 134.228 200.608ZM116.876 205.576V210.04C117.884 209.968 119.216 209.896 120.26 209.896C121.808 209.896 137.432 209.896 138.548 209.896C139.304 209.896 140.456 209.932 141.284 209.968V205.576C140.672 205.684 139.268 205.792 138.332 205.792C136.928 205.792 122.168 205.792 120.152 205.792C119.18 205.792 117.74 205.72 116.876 205.576ZM115.328 219.58L118.46 223.144C123.5 220.516 129.332 215.44 131.204 212.056L131.132 208.564L128.792 208.528C126.848 212.056 121.124 216.916 115.328 219.58ZM192.872 195.064H187.436C187.58 196.072 187.688 197.224 187.688 198.7C187.688 200.248 187.688 203.704 187.688 205.504C187.688 211.12 187.184 213.82 184.736 216.52C182.54 218.86 179.66 220.228 176.06 221.056L179.84 225.052C182.468 224.188 186.176 222.46 188.552 219.832C191.252 216.88 192.764 213.568 192.764 205.792C192.764 204.028 192.764 200.536 192.764 198.7C192.764 197.224 192.8 196.072 192.872 195.064ZM176.204 195.388H170.984C171.092 196.216 171.128 197.476 171.128 198.124C171.128 199.708 171.128 208.204 171.128 210.256C171.128 211.372 171.02 212.776 170.948 213.424H176.204C176.132 212.596 176.06 211.192 176.06 210.292C176.06 208.276 176.06 199.708 176.06 198.124C176.06 197.008 176.132 196.216 176.204 195.388ZM242.624 194.164H237.476C237.656 195.136 237.728 196.288 237.836 197.836C238.124 203.776 238.196 213.64 238.196 218.608C238.196 219.616 237.872 220.084 236.972 220.084C235.748 220.084 233.804 219.94 232.148 219.688L232.58 224.368C234.632 224.512 236.612 224.584 238.808 224.584C241.544 224.584 242.876 223.252 242.84 220.948C242.768 213.676 242.516 203.776 242.408 197.836C242.372 196.684 242.444 195.316 242.624 194.164ZM222.068 200.176V204.964C223.328 204.892 224.84 204.82 226.172 204.82C228.152 204.82 245.756 204.82 247.16 204.82C248.132 204.82 249.536 204.856 250.652 204.892V200.14C249.788 200.248 248.096 200.428 246.944 200.428C245.18 200.428 228.548 200.428 226.028 200.428C224.804 200.428 223.076 200.284 222.068 200.176ZM220.124 217.312L223.436 221.056C229.628 217.78 236 212.128 238.916 207.772L238.88 203.92H236.54C233.948 208.168 227.648 213.712 220.124 217.312Z" fill="#3A6073"/>
</svg>
