<svg width="154" height="150" viewBox="0 0 154 150" fill="none" xmlns="http://www.w3.org/2000/svg">
<g clip-path="url(#clip0_7_174)">
<path d="M154 0H0V150H154V0Z" fill="#EAE4E4"/>
<path d="M25.8156 31.2912L23.8419 33.2568C26.4365 34.8552 30.6499 37.8792 32.5792 39.6504L34.7081 37.188C32.6458 35.5896 28.5432 32.8248 25.8156 31.2912ZM36.2604 27.6192L33.9985 26.2584C33.4885 26.4096 32.7566 26.5176 32.0692 26.5176H25.749L24.7289 28.9584H32.2244C31.8031 30.6432 30.4282 33.1272 28.9424 34.8336C27.0352 36.9936 24.3963 39.2616 19.7615 40.6656L22.3339 42.8256C26.5695 41.2704 29.4081 38.8512 31.4926 36.324C33.4884 33.9264 34.8412 31.1616 35.5065 29.1744C35.706 28.6344 35.9943 28.0296 36.2604 27.6192ZM28.9202 24.2928L25.7047 23.3208C25.5051 24.0768 25.0394 25.0704 24.7068 25.5888C23.5758 27.468 21.5356 30.4272 17.6548 32.76L20.0276 34.5528C23.221 32.4144 26.0595 29.1096 27.5453 26.496C27.8114 26.0424 28.388 25.0488 28.9202 24.2928ZM61.3859 24.0768H58.1038C58.1925 24.5952 58.2812 25.5888 58.2812 26.064C58.259 31.7664 57.2389 35.4384 54.3339 38.2464C53.4468 39.132 52.3381 39.8448 51.4067 40.3416L54.0013 42.372C58.9021 38.9808 60.9867 34.596 61.2306 26.0208C61.2528 25.5024 61.3193 24.5952 61.3859 24.0768ZM68.9035 28.7208L66.9964 27.792C66.4642 27.9 65.8876 27.9432 65.311 27.9432H55.0435C54.2008 27.9432 53.0699 27.9 52.1385 27.792V30.6432C53.0699 30.5568 54.3117 30.5352 55.0657 30.5352H65.8876C65.8876 32.868 65.5771 37.188 64.934 38.5488C64.7123 39.0888 64.4018 39.3264 63.6922 39.3264C62.8051 39.3264 61.6741 39.1968 60.5653 39.024L60.9202 41.8968C62.0068 41.9832 63.3152 42.0912 64.6014 42.0912C66.1093 42.0912 66.9742 41.508 67.4399 40.428C68.3935 38.2248 68.6818 32.1984 68.7705 29.844C68.7705 29.6064 68.837 29.0664 68.9035 28.7208ZM87.3983 34.2936C86.6221 36.1944 85.3138 38.5272 83.9389 40.2768L87.0435 41.5512C88.1966 39.9312 89.5272 37.4904 90.3034 35.3952C91.0795 33.3648 91.9 30.4056 92.1883 28.8936C92.2992 28.3968 92.5431 27.3384 92.7205 26.7336L89.505 26.0856C89.2167 28.8288 88.374 31.8744 87.3983 34.2936ZM98.3311 33.84C99.2181 36.1728 100.039 38.8944 100.66 41.4648L103.919 40.428C103.321 38.2896 102.145 34.8336 101.347 32.8896C100.504 30.7944 98.9964 27.468 98.065 25.8048L95.1156 26.7336C96.0691 28.3752 97.4884 31.572 98.3311 33.84ZM122.946 24.3144L121.35 26.6904C122.813 27.4896 125.12 28.9368 126.362 29.7792L128.003 27.4032C126.849 26.604 124.41 25.092 122.946 24.3144ZM118.844 39.6504L120.507 42.48C122.459 42.1344 125.652 41.0544 127.914 39.8232C131.529 37.7712 134.678 35.0496 136.718 32.0472L135.01 29.1096C133.258 32.1984 130.154 35.1576 126.384 37.2096C123.967 38.5056 121.328 39.24 118.844 39.6504ZM119.531 29.2392L117.935 31.6152C119.42 32.3928 121.727 33.84 122.969 34.704L124.61 32.2848C123.456 31.4856 121.017 30.0168 119.531 29.2392ZM25.8156 58.8912L23.8419 60.8568C26.4365 62.4552 30.6499 65.4792 32.5792 67.2504L34.7081 64.788C32.6458 63.1896 28.5432 60.4248 25.8156 58.8912ZM36.2604 55.2192L33.9985 53.8584C33.4885 54.0096 32.7566 54.1176 32.0692 54.1176H25.749L24.7289 56.5584H32.2244C31.8031 58.2432 30.4282 60.7272 28.9424 62.4336C27.0352 64.5936 24.3963 66.8616 19.7615 68.2656L22.3339 70.4256C26.5695 68.8704 29.4081 66.4512 31.4926 63.924C33.4884 61.5264 34.8412 58.7616 35.5065 56.7744C35.706 56.2344 35.9943 55.6296 36.2604 55.2192ZM28.9202 51.8928L25.7047 50.9208C25.5051 51.6768 25.0394 52.6704 24.7068 53.1888C23.5758 55.068 21.5356 58.0272 17.6548 60.36L20.0276 62.1528C23.221 60.0144 26.0595 56.7096 27.5453 54.096C27.8114 53.6424 28.388 52.6488 28.9202 51.8928ZM61.3859 51.6768H58.1038C58.1925 52.1952 58.2812 53.1888 58.2812 53.664C58.259 59.3664 57.2389 63.0384 54.3339 65.8464C53.4468 66.732 52.3381 67.4448 51.4067 67.9416L54.0013 69.972C58.9021 66.5808 60.9867 62.196 61.2306 53.6208C61.2528 53.1024 61.3193 52.1952 61.3859 51.6768ZM68.9035 56.3208L66.9964 55.392C66.4642 55.5 65.8876 55.5432 65.311 55.5432H55.0435C54.2008 55.5432 53.0699 55.5 52.1385 55.392V58.2432C53.0699 58.1568 54.3117 58.1352 55.0657 58.1352H65.8876C65.8876 60.468 65.5771 64.788 64.934 66.1488C64.7123 66.6888 64.4018 66.9264 63.6922 66.9264C62.8051 66.9264 61.6741 66.7968 60.5653 66.624L60.9202 69.4968C62.0068 69.5832 63.3152 69.6912 64.6014 69.6912C66.1093 69.6912 66.9742 69.108 67.4399 68.028C68.3935 65.8248 68.6818 59.7984 68.7705 57.444C68.7705 57.2064 68.837 56.6664 68.9035 56.3208ZM100.726 54.9816L98.3976 53.8584C98.0206 54.0312 96.9118 54.1392 96.3352 54.1392C95.0047 54.1392 90.7469 54.1392 89.3498 54.1392C88.5958 54.1392 87.5757 54.0744 86.8439 53.988V57.0336C87.6422 56.9688 88.4628 56.9256 89.372 56.9256C90.7691 56.9256 95.293 56.9256 97.0227 56.9256C96.9562 58.4808 96.0026 64.032 95.6478 65.976H98.9076C99.2181 64.0104 100.194 58.1568 100.482 55.9752C100.504 55.8024 100.615 55.284 100.726 54.9816ZM84.4267 65.0904V68.244C85.1585 68.1576 85.9347 68.1144 86.6221 68.1144H101.391C101.924 68.1144 102.855 68.1576 103.476 68.244V65.0904C102.899 65.1768 102.19 65.2632 101.391 65.2632H86.6221C85.9347 65.2632 85.1364 65.22 84.4267 65.0904ZM124.188 53.5776C124.543 55.3272 126.694 66.2136 127.027 68.1576C127.182 68.8056 127.226 69.54 127.337 70.3392L130.531 69.7992C130.331 69.0864 130.131 68.3088 129.976 67.6824C129.511 65.4792 127.315 54.5496 127.093 53.124C127.005 52.6056 126.916 51.8712 126.872 51.4608L123.723 51.9576C123.9 52.4544 124.055 52.9728 124.188 53.5776ZM118.134 56.3424L118.733 59.3232C119.487 59.1288 120.064 58.9992 120.751 58.8696C122.414 58.5888 130.043 57.4008 132.393 57.0336C133.059 56.9472 133.968 56.8176 134.456 56.796L133.901 53.9448C133.369 54.096 132.526 54.2904 131.839 54.3984C129.843 54.7872 122.082 55.9536 120.197 56.1696C119.487 56.256 118.822 56.2992 118.134 56.3424ZM118.156 62.6712L118.777 65.5656C119.265 65.436 120.041 65.3064 120.995 65.1336C123.19 64.7232 131.174 63.4488 133.99 63.0384C134.811 62.9088 135.72 62.7576 136.319 62.7144L135.742 59.8632C135.143 60.0144 134.323 60.2088 133.458 60.36C130.908 60.8352 122.813 62.1096 120.441 62.4336C119.753 62.5416 118.733 62.6496 118.156 62.6712ZM29.4302 81.804L26.3921 81.7176C26.1704 83.9856 25.6825 86.4696 25.0394 88.5C24.108 91.416 23.2653 92.7984 22.3117 92.7984C21.4691 92.7984 20.582 91.74 20.582 89.5584C20.582 86.8368 23.1544 83.1 27.8557 83.1C31.6922 83.1 33.8654 85.5192 33.8654 88.9104C33.8654 92.0856 31.6478 94.0512 28.8315 94.7208C28.2327 94.8504 27.6118 94.9584 26.7469 95.0664L28.4323 97.6152C34.0207 96.7728 36.8814 93.5544 36.8814 89.0184C36.8814 84.288 33.3997 80.5728 27.9223 80.5728C22.1787 80.5728 17.7213 84.8496 17.7213 89.8176C17.7213 93.468 19.7615 96.1248 22.2452 96.1248C24.6624 96.1248 26.5695 93.4464 27.9001 89.0832C28.6763 86.5344 29.1198 84.0072 29.4302 81.804ZM66.7746 80.4216C66.7746 79.7736 67.3069 79.2336 67.9721 79.2336C68.6374 79.2336 69.1918 79.7736 69.1918 80.4216C69.1918 81.0696 68.6374 81.588 67.9721 81.588C67.3069 81.588 66.7746 81.0696 66.7746 80.4216ZM65.4219 80.4216C65.4219 81.804 66.5529 82.9056 67.9721 82.9056C69.3914 82.9056 70.5445 81.804 70.5445 80.4216C70.5445 79.0392 69.3914 77.916 67.9721 77.916C66.5529 77.916 65.4219 79.0392 65.4219 80.4216ZM62.3616 79.5576H59.0796C59.1461 79.9464 59.257 80.8752 59.257 81.4368C59.257 82.7544 59.257 85.0656 59.257 85.8216C59.257 86.8368 59.257 93.6624 59.2348 94.4832C59.2126 95.0448 59.013 95.2392 58.4364 95.2392C57.882 95.2392 56.9063 95.1744 55.9749 95.0016L56.241 97.68C57.3498 97.8096 58.6582 97.8528 59.8335 97.8528C61.408 97.8528 62.162 97.0752 62.162 95.8224C62.162 94.008 62.162 87.5712 62.162 85.8216C62.162 84.5688 62.162 82.7328 62.162 81.4584C62.162 80.9184 62.2951 79.86 62.3616 79.5576ZM51.4954 83.0136V85.8648C52.1163 85.8 52.959 85.7784 53.6243 85.7784C55.0879 85.7784 65.7545 85.7784 67.3512 85.7784C67.95 85.7784 68.8148 85.8 69.5023 85.8648V83.0352C68.9035 83.1 67.95 83.1648 67.329 83.1648C65.7324 83.1648 54.977 83.1648 53.6243 83.1648C52.9368 83.1648 52.1606 83.1 51.4954 83.0136ZM57.1502 88.8672L54.6222 87.7008C53.713 89.5368 51.9389 91.9128 50.4531 93.2952L52.8703 94.872C54.0678 93.5976 56.1301 90.768 57.1502 88.8672ZM66.6637 87.636L64.2466 88.9104C65.3332 90.2496 66.9077 92.8632 67.8612 94.7208L70.4558 93.3168C69.5688 91.74 67.7947 89.0184 66.6637 87.636ZM84.8702 86.5992V90.012C85.7129 89.9472 87.1987 89.8824 88.4406 89.8824C91.0574 89.8824 98.3532 89.8824 100.371 89.8824C101.303 89.8824 102.434 89.9904 102.966 90.012V86.5992C102.367 86.6424 101.391 86.7504 100.349 86.7504C98.3754 86.7504 91.0574 86.7504 88.4406 86.7504C87.2874 86.7504 85.6908 86.664 84.8702 86.5992ZM123.057 94.548C123.057 95.3904 122.991 96.708 122.836 97.5504H126.317C126.206 96.6648 126.118 95.1528 126.118 94.548C126.118 92.9496 126.095 84.504 126.095 82.128C126.095 81.2208 126.206 80.292 126.295 79.5144H122.836C122.991 80.292 123.057 81.3504 123.057 82.128C123.057 83.9424 123.057 92.8848 123.057 94.548ZM125.452 85.1088V88.2192C127.87 88.9968 131.595 90.3792 134.123 91.6536L135.365 88.6512C133.192 87.6144 128.402 85.908 125.452 85.1088ZM36.0387 109.836L33.8433 108.475C33.2445 108.605 32.5349 108.626 32.1135 108.626C30.8717 108.626 23.5092 108.626 21.846 108.626C21.1142 108.626 19.8724 108.54 19.2071 108.454V111.499C19.7837 111.478 20.826 111.413 21.846 111.413C23.5092 111.413 30.8273 111.413 32.1801 111.413C31.8696 113.27 31.0491 115.711 29.5633 117.526C27.767 119.707 25.2833 121.586 20.8703 122.58L23.2875 125.172C27.257 123.941 30.2064 121.781 32.2022 119.21C34.065 116.791 35.0408 113.443 35.5508 111.326C35.6617 110.873 35.8169 110.246 36.0387 109.836ZM64.5127 110.765H61.6298C61.7407 111.37 61.8072 112.039 61.8072 112.579C61.9403 115.409 62.029 120.463 62.029 122.882C62.029 123.336 61.8516 123.552 61.4302 123.552C60.8536 123.552 59.7892 123.487 58.9021 123.379L59.0574 125.842C60.0553 125.906 61.4302 125.95 62.4947 125.95C63.803 125.95 64.6901 125.172 64.6679 124.049C64.6236 120.614 64.4905 115.409 64.4018 112.579C64.4018 111.996 64.424 111.305 64.5127 110.765ZM53.8238 113.746V116.424C54.4448 116.381 55.2653 116.338 55.9084 116.338C56.862 116.338 66.4863 116.338 67.1738 116.338C67.6395 116.338 68.3491 116.359 68.8592 116.381V113.746C68.4822 113.81 67.6173 113.875 67.0407 113.875C66.1759 113.875 57.0837 113.875 55.8419 113.875C55.2431 113.875 54.3561 113.832 53.8238 113.746ZM52.8703 122.148L54.7996 124.286C57.9042 122.71 61.4967 119.664 62.6499 117.634L62.6055 115.538L61.1641 115.517C59.9666 117.634 56.4406 120.55 52.8703 122.148ZM100.637 107.438H97.2888C97.3775 108.043 97.444 108.734 97.444 109.62C97.444 110.549 97.444 112.622 97.444 113.702C97.444 117.072 97.1336 118.692 95.6256 120.312C94.2729 121.716 92.4988 122.537 90.2812 123.034L92.6097 125.431C94.2285 124.913 96.5126 123.876 97.9763 122.299C99.6395 120.528 100.571 118.541 100.571 113.875C100.571 112.817 100.571 110.722 100.571 109.62C100.571 108.734 100.593 108.043 100.637 107.438ZM90.3699 107.633H87.1544C87.2209 108.13 87.2431 108.886 87.2431 109.274C87.2431 110.225 87.2431 115.322 87.2431 116.554C87.2431 117.223 87.1765 118.066 87.1322 118.454H90.3699C90.3255 117.958 90.2812 117.115 90.2812 116.575C90.2812 115.366 90.2812 110.225 90.2812 109.274C90.2812 108.605 90.3255 108.13 90.3699 107.633ZM131.285 106.898H128.113C128.224 107.482 128.269 108.173 128.335 109.102C128.513 112.666 128.557 118.584 128.557 121.565C128.557 122.17 128.357 122.45 127.803 122.45C127.049 122.45 125.851 122.364 124.831 122.213L125.098 125.021C126.362 125.107 127.581 125.15 128.934 125.15C130.619 125.15 131.44 124.351 131.418 122.969C131.373 118.606 131.218 112.666 131.152 109.102C131.129 108.41 131.174 107.59 131.285 106.898ZM118.622 110.506V113.378C119.398 113.335 120.33 113.292 121.15 113.292C122.37 113.292 133.214 113.292 134.079 113.292C134.678 113.292 135.542 113.314 136.23 113.335V110.484C135.698 110.549 134.655 110.657 133.946 110.657C132.859 110.657 122.614 110.657 121.061 110.657C120.307 110.657 119.243 110.57 118.622 110.506ZM117.425 120.787L119.465 123.034C123.279 121.068 127.204 117.677 129 115.063L128.978 112.752H127.537C125.94 115.301 122.059 118.627 117.425 120.787Z" fill="#262624"/>
</g>
<defs>
<clipPath id="clip0_7_174">
<rect width="154" height="150" fill="white"/>
</clipPath>
</defs>
</svg>
