<svg width="23" height="36" viewBox="0 0 23 36" fill="none" xmlns="http://www.w3.org/2000/svg">
<path d="M23 18C23 20.49 22.5685 22.83 21.7054 25.02C20.8435 27.21 19.6732 29.115 18.1946 30.735C16.7161 32.355 14.9774 33.6372 12.9786 34.5816C10.9798 35.5272 8.84405 36 6.57143 36C5.69524 36 4.77798 35.91 3.81964 35.73C2.86131 35.55 1.94405 35.295 1.06786 34.965C0.739286 34.815 0.479167 34.5828 0.2875 34.2684C0.0958336 33.9528 0 33.6 0 33.21C0 32.94 0.0481902 32.685 0.144571 32.445C0.239857 32.205 0.383333 32.01 0.575 31.86C2.51905 30.09 4.00419 27.9972 5.03043 25.5816C6.05776 23.1672 6.57143 20.64 6.57143 18C6.57143 15.36 6.05776 12.8322 5.03043 10.4166C4.00419 8.0022 2.51905 5.91 0.575 4.14C0.383333 3.99 0.239857 3.795 0.144571 3.555C0.0481902 3.315 0 3.06 0 2.79C0 2.4 0.0958336 2.0472 0.2875 1.7316C0.479167 1.4172 0.739286 1.185 1.06786 1.035C1.94405 0.705 2.86131 0.45 3.81964 0.27C4.77798 0.0900002 5.69524 0 6.57143 0C8.84405 0 10.9798 0.4722 12.9786 1.4166C14.9774 2.3622 16.7161 3.645 18.1946 5.265C19.6732 6.885 20.8435 8.79 21.7054 10.98C22.5685 13.17 23 15.51 23 18Z" fill="#3A6073"/>
</svg>
