<svg xmlns="http://www.w3.org/2000/svg" viewBox="0 0 640 640" width="640" height="640" preserveAspectRatio="xMidYMid meet" style="width: 100%; height: 100%; transform: translate3d(0px, 0px, 0px);"><defs><clipPath id="__lottie_element_410"><rect width="640" height="640" x="0" y="0"></rect></clipPath></defs><g clip-path="url(#__lottie_element_410)"><g style="display: block;" transform="matrix(1,0,0,1,177,177)" opacity="1"><g opacity="1" transform="matrix(0.7071067690849304,0.7071067690849304,-0.7071067690849304,0.7071067690849304,143,143)"><path stroke-linecap="butt" stroke-linejoin="miter" fill-opacity="0" stroke-miterlimit="10" stroke="rgb(178,177,174)" stroke-opacity="1" stroke-width="2" d=" M138,0 C138,76.21499633789062 76.21499633789062,138 0,138 C-76.21499633789062,138 -138,76.21499633789062 -138,0 C-138,-76.21499633789062 -76.21499633789062,-138 0,-138 C76.21499633789062,-138 138,-76.21499633789062 138,0z"></path></g><g opacity="1" transform="matrix(-0.20269058644771576,0.20269058644771576,0.7071067690849304,0.7071067690849304,143,143)"><path stroke-linecap="butt" stroke-linejoin="miter" fill-opacity="0" stroke-miterlimit="10" stroke="rgb(178,177,174)" stroke-opacity="1" stroke-width="1" d=" M132,0 C132,72.9020004272461 72.9020004272461,132 0,132 C-72.9020004272461,132 -132,72.9020004272461 -132,0 C-132,-72.9020004272461 -72.9020004272461,-132 0,-132 C72.9020004272461,-132 132,-72.9020004272461 132,0z"></path></g><g opacity="1" transform="matrix(1,0,0,-0.6782504916191101,143,143)"><path stroke-linecap="butt" stroke-linejoin="miter" fill-opacity="0" stroke-miterlimit="10" stroke="rgb(178,177,174)" stroke-opacity="1" stroke-width="0.75" d=" M126,0 C126,69.58799743652344 69.58799743652344,126 0,126 C-69.58799743652344,126 -126,69.58799743652344 -126,0 C-126,-69.58799743652344 -69.58799743652344,-126 0,-126 C69.58799743652344,-126 126,-69.58799743652344 126,0z"></path></g><g opacity="1" transform="matrix(-0.9998300075531006,0,0,1,143,143)"><path stroke-linecap="butt" stroke-linejoin="miter" fill-opacity="0" stroke-miterlimit="10" stroke="rgb(178,177,174)" stroke-opacity="1" stroke-width="0.5" d=" M120,0 C120,66.27400207519531 66.27400207519531,120 0,120 C-66.27400207519531,120 -120,66.27400207519531 -120,0 C-120,-66.27400207519531 -66.27400207519531,-120 0,-120 C66.27400207519531,-120 120,-66.27400207519531 120,0z"></path></g></g></g></svg>
