<svg width="266" height="250" viewBox="0 0 266 250" fill="none" xmlns="http://www.w3.org/2000/svg">
<rect width="266" height="250" fill="#40587C"/>
<path d="M49.9387 52.152L46.7347 55.428C50.9467 58.092 57.7867 63.132 60.9187 66.084L64.3747 61.98C61.0267 59.316 54.3667 54.708 49.9387 52.152ZM66.8947 46.032L63.2227 43.764C62.3947 44.016 61.2067 44.196 60.0907 44.196H49.8307L48.1747 48.264H60.3427C59.6587 51.072 57.4267 55.212 55.0147 58.056C51.9187 61.656 47.6347 65.436 40.1107 67.776L44.2867 71.376C51.1627 68.784 55.7707 64.752 59.1547 60.54C62.3947 56.544 64.5907 51.936 65.6707 48.624C65.9947 47.724 66.4627 46.716 66.8947 46.032ZM54.9787 40.488L49.7587 38.868C49.4347 40.128 48.6787 41.784 48.1387 42.648C46.3027 45.78 42.9907 50.712 36.6907 54.6L40.5427 57.588C45.7267 54.024 50.3347 48.516 52.7467 44.16C53.1787 43.404 54.1147 41.748 54.9787 40.488ZM107.683 40.128H102.355C102.499 40.992 102.643 42.648 102.643 43.44C102.607 52.944 100.951 59.064 96.2347 63.744C94.7947 65.22 92.9947 66.408 91.4827 67.236L95.6947 70.62C103.651 64.968 107.035 57.66 107.431 43.368C107.467 42.504 107.575 40.992 107.683 40.128ZM119.887 47.868L116.791 46.32C115.927 46.5 114.991 46.572 114.055 46.572H97.3867C96.0187 46.572 94.1827 46.5 92.6707 46.32V51.072C94.1827 50.928 96.1987 50.892 97.4227 50.892H114.991C114.991 54.78 114.487 61.98 113.443 64.248C113.083 65.148 112.579 65.544 111.427 65.544C109.987 65.544 108.151 65.328 106.351 65.04L106.927 69.828C108.691 69.972 110.815 70.152 112.903 70.152C115.351 70.152 116.755 69.18 117.511 67.38C119.059 63.708 119.527 53.664 119.671 49.74C119.671 49.344 119.779 48.444 119.887 47.868ZM149.911 57.156C148.651 60.324 146.527 64.212 144.295 67.128L149.335 69.252C151.207 66.552 153.367 62.484 154.627 58.992C155.887 55.608 157.219 50.676 157.687 48.156C157.867 47.328 158.263 45.564 158.551 44.556L153.331 43.476C152.863 48.048 151.495 53.124 149.911 57.156ZM167.659 56.4C169.099 60.288 170.431 64.824 171.439 69.108L176.731 67.38C175.759 63.816 173.851 58.056 172.555 54.816C171.187 51.324 168.739 45.78 167.227 43.008L162.439 44.556C163.987 47.292 166.291 52.62 167.659 56.4ZM207.619 40.524L205.027 44.484C207.403 45.816 211.147 48.228 213.163 49.632L215.827 45.672C213.955 44.34 209.995 41.82 207.619 40.524ZM200.959 66.084L203.659 70.8C206.827 70.224 212.011 68.424 215.683 66.372C221.551 62.952 226.663 58.416 229.975 53.412L227.203 48.516C224.359 53.664 219.319 58.596 213.199 62.016C209.275 64.176 204.991 65.4 200.959 66.084ZM202.075 48.732L199.483 52.692C201.895 53.988 205.639 56.4 207.655 57.84L210.319 53.808C208.447 52.476 204.487 50.028 202.075 48.732ZM49.9387 98.152L46.7347 101.428C50.9467 104.092 57.7867 109.132 60.9187 112.084L64.3747 107.98C61.0267 105.316 54.3667 100.708 49.9387 98.152ZM66.8947 92.032L63.2227 89.764C62.3947 90.016 61.2067 90.196 60.0907 90.196H49.8307L48.1747 94.264H60.3427C59.6587 97.072 57.4267 101.212 55.0147 104.056C51.9187 107.656 47.6347 111.436 40.1107 113.776L44.2867 117.376C51.1627 114.784 55.7707 110.752 59.1547 106.54C62.3947 102.544 64.5907 97.936 65.6707 94.624C65.9947 93.724 66.4627 92.716 66.8947 92.032ZM54.9787 86.488L49.7587 84.868C49.4347 86.128 48.6787 87.784 48.1387 88.648C46.3027 91.78 42.9907 96.712 36.6907 100.6L40.5427 103.588C45.7267 100.024 50.3347 94.516 52.7467 90.16C53.1787 89.404 54.1147 87.748 54.9787 86.488ZM107.683 86.128H102.355C102.499 86.992 102.643 88.648 102.643 89.44C102.607 98.944 100.951 105.064 96.2347 109.744C94.7947 111.22 92.9947 112.408 91.4827 113.236L95.6947 116.62C103.651 110.968 107.035 103.66 107.431 89.368C107.467 88.504 107.575 86.992 107.683 86.128ZM119.887 93.868L116.791 92.32C115.927 92.5 114.991 92.572 114.055 92.572H97.3867C96.0187 92.572 94.1827 92.5 92.6707 92.32V97.072C94.1827 96.928 96.1987 96.892 97.4227 96.892H114.991C114.991 100.78 114.487 107.98 113.443 110.248C113.083 111.148 112.579 111.544 111.427 111.544C109.987 111.544 108.151 111.328 106.351 111.04L106.927 115.828C108.691 115.972 110.815 116.152 112.903 116.152C115.351 116.152 116.755 115.18 117.511 113.38C119.059 109.708 119.527 99.664 119.671 95.74C119.671 95.344 119.779 94.444 119.887 93.868ZM171.547 91.636L167.767 89.764C167.155 90.052 165.355 90.232 164.419 90.232C162.259 90.232 155.347 90.232 153.079 90.232C151.855 90.232 150.199 90.124 149.011 89.98V95.056C150.307 94.948 151.639 94.876 153.115 94.876C155.383 94.876 162.727 94.876 165.535 94.876C165.427 97.468 163.879 106.72 163.303 109.96H168.595C169.099 106.684 170.683 96.928 171.151 93.292C171.187 93.004 171.367 92.14 171.547 91.636ZM145.087 108.484V113.74C146.275 113.596 147.535 113.524 148.651 113.524H172.627C173.491 113.524 175.003 113.596 176.011 113.74V108.484C175.075 108.628 173.923 108.772 172.627 108.772H148.651C147.535 108.772 146.239 108.7 145.087 108.484ZM209.635 89.296C210.211 92.212 213.703 110.356 214.243 113.596C214.495 114.676 214.567 115.9 214.747 117.232L219.931 116.332C219.607 115.144 219.283 113.848 219.031 112.804C218.275 109.132 214.711 90.916 214.351 88.54C214.207 87.676 214.063 86.452 213.991 85.768L208.879 86.596C209.167 87.424 209.419 88.288 209.635 89.296ZM199.807 93.904L200.779 98.872C202.003 98.548 202.939 98.332 204.055 98.116C206.755 97.648 219.139 95.668 222.955 95.056C224.035 94.912 225.511 94.696 226.303 94.66L225.403 89.908C224.539 90.16 223.171 90.484 222.055 90.664C218.815 91.312 206.215 93.256 203.155 93.616C202.003 93.76 200.923 93.832 199.807 93.904ZM199.843 104.452L200.851 109.276C201.643 109.06 202.903 108.844 204.451 108.556C208.015 107.872 220.975 105.748 225.547 105.064C226.879 104.848 228.355 104.596 229.327 104.524L228.391 99.772C227.419 100.024 226.087 100.348 224.683 100.6C220.543 101.392 207.403 103.516 203.551 104.056C202.435 104.236 200.779 104.416 199.843 104.452ZM55.8067 136.34L50.8747 136.196C50.5147 139.976 49.7227 144.116 48.6787 147.5C47.1667 152.36 45.7987 154.664 44.2507 154.664C42.8827 154.664 41.4427 152.9 41.4427 149.264C41.4427 144.728 45.6187 138.5 53.2507 138.5C59.4787 138.5 63.0067 142.532 63.0067 148.184C63.0067 153.476 59.4067 156.752 54.8347 157.868C53.8627 158.084 52.8547 158.264 51.4507 158.444L54.1867 162.692C63.2587 161.288 67.9027 155.924 67.9027 148.364C67.9027 140.48 62.2507 134.288 53.3587 134.288C44.0347 134.288 36.7987 141.416 36.7987 149.696C36.7987 155.78 40.1107 160.208 44.1427 160.208C48.0667 160.208 51.1627 155.744 53.3227 148.472C54.5827 144.224 55.3027 140.012 55.8067 136.34ZM116.431 134.036C116.431 132.956 117.295 132.056 118.375 132.056C119.455 132.056 120.355 132.956 120.355 134.036C120.355 135.116 119.455 135.98 118.375 135.98C117.295 135.98 116.431 135.116 116.431 134.036ZM114.235 134.036C114.235 136.34 116.071 138.176 118.375 138.176C120.679 138.176 122.551 136.34 122.551 134.036C122.551 131.732 120.679 129.86 118.375 129.86C116.071 129.86 114.235 131.732 114.235 134.036ZM109.267 132.596H103.939C104.047 133.244 104.227 134.792 104.227 135.728C104.227 137.924 104.227 141.776 104.227 143.036C104.227 144.728 104.227 156.104 104.191 157.472C104.155 158.408 103.831 158.732 102.895 158.732C101.995 158.732 100.411 158.624 98.8987 158.336L99.3307 162.8C101.131 163.016 103.255 163.088 105.163 163.088C107.719 163.088 108.943 161.792 108.943 159.704C108.943 156.68 108.943 145.952 108.943 143.036C108.943 140.948 108.943 137.888 108.943 135.764C108.943 134.864 109.159 133.1 109.267 132.596ZM91.6267 138.356V143.108C92.6347 143 94.0027 142.964 95.0827 142.964C97.4587 142.964 114.775 142.964 117.367 142.964C118.339 142.964 119.743 143 120.859 143.108V138.392C119.887 138.5 118.339 138.608 117.331 138.608C114.739 138.608 97.2787 138.608 95.0827 138.608C93.9667 138.608 92.7067 138.5 91.6267 138.356ZM100.807 148.112L96.7027 146.168C95.2267 149.228 92.3467 153.188 89.9347 155.492L93.8587 158.12C95.8027 155.996 99.1507 151.28 100.807 148.112ZM116.251 146.06L112.327 148.184C114.091 150.416 116.647 154.772 118.195 157.868L122.407 155.528C120.967 152.9 118.087 148.364 116.251 146.06ZM145.807 144.332V150.02C147.175 149.912 149.587 149.804 151.603 149.804C155.851 149.804 167.695 149.804 170.971 149.804C172.483 149.804 174.319 149.984 175.183 150.02V144.332C174.211 144.404 172.627 144.584 170.935 144.584C167.731 144.584 155.851 144.584 151.603 144.584C149.731 144.584 147.139 144.44 145.807 144.332ZM207.799 157.58C207.799 158.984 207.691 161.18 207.439 162.584H213.091C212.911 161.108 212.767 158.588 212.767 157.58C212.767 154.916 212.731 140.84 212.731 136.88C212.731 135.368 212.911 133.82 213.055 132.524H207.439C207.691 133.82 207.799 135.584 207.799 136.88C207.799 139.904 207.799 154.808 207.799 157.58ZM211.687 141.848V147.032C215.611 148.328 221.659 150.632 225.763 152.756L227.779 147.752C224.251 146.024 216.475 143.18 211.687 141.848ZM66.5347 183.06L62.9707 180.792C61.9987 181.008 60.8467 181.044 60.1627 181.044C58.1467 181.044 46.1947 181.044 43.4947 181.044C42.3067 181.044 40.2907 180.9 39.2107 180.756V185.832C40.1467 185.796 41.8387 185.688 43.4947 185.688C46.1947 185.688 58.0747 185.688 60.2707 185.688C59.7667 188.784 58.4347 192.852 56.0227 195.876C53.1067 199.512 49.0747 202.644 41.9107 204.3L45.8347 208.62C52.2787 206.568 57.0667 202.968 60.3067 198.684C63.3307 194.652 64.9147 189.072 65.7427 185.544C65.9227 184.788 66.1747 183.744 66.5347 183.06ZM112.759 184.608H108.079C108.259 185.616 108.367 186.732 108.367 187.632C108.583 192.348 108.727 200.772 108.727 204.804C108.727 205.56 108.439 205.92 107.755 205.92C106.819 205.92 105.091 205.812 103.651 205.632L103.903 209.736C105.523 209.844 107.755 209.916 109.483 209.916C111.607 209.916 113.047 208.62 113.011 206.748C112.939 201.024 112.723 192.348 112.579 187.632C112.579 186.66 112.615 185.508 112.759 184.608ZM95.4067 189.576V194.04C96.4147 193.968 97.7467 193.896 98.7907 193.896C100.339 193.896 115.963 193.896 117.079 193.896C117.835 193.896 118.987 193.932 119.815 193.968V189.576C119.203 189.684 117.799 189.792 116.863 189.792C115.459 189.792 100.699 189.792 98.6827 189.792C97.7107 189.792 96.2707 189.72 95.4067 189.576ZM93.8587 203.58L96.9907 207.144C102.031 204.516 107.863 199.44 109.735 196.056L109.663 192.564L107.323 192.528C105.379 196.056 99.6547 200.916 93.8587 203.58ZM171.403 179.064H165.967C166.111 180.072 166.219 181.224 166.219 182.7C166.219 184.248 166.219 187.704 166.219 189.504C166.219 195.12 165.715 197.82 163.267 200.52C161.071 202.86 158.191 204.228 154.591 205.056L158.371 209.052C160.999 208.188 164.707 206.46 167.083 203.832C169.783 200.88 171.295 197.568 171.295 189.792C171.295 188.028 171.295 184.536 171.295 182.7C171.295 181.224 171.331 180.072 171.403 179.064ZM154.735 179.388H149.515C149.623 180.216 149.659 181.476 149.659 182.124C149.659 183.708 149.659 192.204 149.659 194.256C149.659 195.372 149.551 196.776 149.479 197.424H154.735C154.663 196.596 154.591 195.192 154.591 194.292C154.591 192.276 154.591 183.708 154.591 182.124C154.591 181.008 154.663 180.216 154.735 179.388ZM221.155 178.164H216.007C216.187 179.136 216.259 180.288 216.367 181.836C216.655 187.776 216.727 197.64 216.727 202.608C216.727 203.616 216.403 204.084 215.503 204.084C214.279 204.084 212.335 203.94 210.679 203.688L211.111 208.368C213.163 208.512 215.143 208.584 217.339 208.584C220.075 208.584 221.407 207.252 221.371 204.948C221.299 197.676 221.047 187.776 220.939 181.836C220.903 180.684 220.975 179.316 221.155 178.164ZM200.599 184.176V188.964C201.859 188.892 203.371 188.82 204.703 188.82C206.683 188.82 224.287 188.82 225.691 188.82C226.663 188.82 228.067 188.856 229.183 188.892V184.14C228.319 184.248 226.627 184.428 225.475 184.428C223.711 184.428 207.079 184.428 204.559 184.428C203.335 184.428 201.607 184.284 200.599 184.176ZM198.655 201.312L201.967 205.056C208.159 201.78 214.531 196.128 217.447 191.772L217.411 187.92H215.071C212.479 192.168 206.179 197.712 198.655 201.312Z" fill="#EDEDE8"/>
</svg>
