<svg width="194" height="172" viewBox="0 0 194 172" fill="none" xmlns="http://www.w3.org/2000/svg">
<path d="M13.908 14.152L10.704 17.428C14.916 20.092 21.756 25.132 24.888 28.084L28.344 23.98C24.996 21.316 18.336 16.708 13.908 14.152ZM30.864 8.032L27.192 5.764C26.364 6.016 25.176 6.196 24.06 6.196H13.8L12.144 10.264H24.312C23.628 13.072 21.396 17.212 18.984 20.056C15.888 23.656 11.604 27.436 4.08 29.776L8.256 33.376C15.132 30.784 19.74 26.752 23.124 22.54C26.364 18.544 28.56 13.936 29.64 10.624C29.964 9.724 30.432 8.716 30.864 8.032ZM18.948 2.488L13.728 0.868C13.404 2.128 12.648 3.784 12.108 4.648C10.272 7.78 6.96 12.712 0.66 16.6L4.512 19.588C9.696 16.024 14.304 10.516 16.716 6.16C17.148 5.404 18.084 3.748 18.948 2.488ZM71.652 2.128H66.324C66.468 2.992 66.612 4.648 66.612 5.44C66.576 14.944 64.92 21.064 60.204 25.744C58.764 27.22 56.964 28.408 55.452 29.236L59.664 32.62C67.62 26.968 71.004 19.66 71.4 5.368C71.436 4.504 71.544 2.992 71.652 2.128ZM83.856 9.868L80.76 8.32C79.896 8.5 78.96 8.572 78.024 8.572H61.356C59.988 8.572 58.152 8.5 56.64 8.32V13.072C58.152 12.928 60.168 12.892 61.392 12.892H78.96C78.96 16.78 78.456 23.98 77.412 26.248C77.052 27.148 76.548 27.544 75.396 27.544C73.956 27.544 72.12 27.328 70.32 27.04L70.896 31.828C72.66 31.972 74.784 32.152 76.872 32.152C79.32 32.152 80.724 31.18 81.48 29.38C83.028 25.708 83.496 15.664 83.64 11.74C83.64 11.344 83.748 10.444 83.856 9.868ZM113.88 19.156C112.62 22.324 110.496 26.212 108.264 29.128L113.304 31.252C115.176 28.552 117.336 24.484 118.596 20.992C119.856 17.608 121.188 12.676 121.656 10.156C121.836 9.328 122.232 7.564 122.52 6.556L117.3 5.476C116.832 10.048 115.464 15.124 113.88 19.156ZM131.628 18.4C133.068 22.288 134.4 26.824 135.408 31.108L140.7 29.38C139.728 25.816 137.82 20.056 136.524 16.816C135.156 13.324 132.708 7.78 131.196 5.008L126.408 6.556C127.956 9.292 130.26 14.62 131.628 18.4ZM171.588 2.524L168.996 6.484C171.372 7.816 175.116 10.228 177.132 11.632L179.796 7.672C177.924 6.34 173.964 3.82 171.588 2.524ZM164.928 28.084L167.628 32.8C170.796 32.224 175.98 30.424 179.652 28.372C185.52 24.952 190.632 20.416 193.944 15.412L191.172 10.516C188.328 15.664 183.288 20.596 177.168 24.016C173.244 26.176 168.96 27.4 164.928 28.084ZM166.044 10.732L163.452 14.692C165.864 15.988 169.608 18.4 171.624 19.84L174.288 15.808C172.416 14.476 168.456 12.028 166.044 10.732ZM13.908 60.152L10.704 63.428C14.916 66.092 21.756 71.132 24.888 74.084L28.344 69.98C24.996 67.316 18.336 62.708 13.908 60.152ZM30.864 54.032L27.192 51.764C26.364 52.016 25.176 52.196 24.06 52.196H13.8L12.144 56.264H24.312C23.628 59.072 21.396 63.212 18.984 66.056C15.888 69.656 11.604 73.436 4.08 75.776L8.256 79.376C15.132 76.784 19.74 72.752 23.124 68.54C26.364 64.544 28.56 59.936 29.64 56.624C29.964 55.724 30.432 54.716 30.864 54.032ZM18.948 48.488L13.728 46.868C13.404 48.128 12.648 49.784 12.108 50.648C10.272 53.78 6.96 58.712 0.66 62.6L4.512 65.588C9.696 62.024 14.304 56.516 16.716 52.16C17.148 51.404 18.084 49.748 18.948 48.488ZM71.652 48.128H66.324C66.468 48.992 66.612 50.648 66.612 51.44C66.576 60.944 64.92 67.064 60.204 71.744C58.764 73.22 56.964 74.408 55.452 75.236L59.664 78.62C67.62 72.968 71.004 65.66 71.4 51.368C71.436 50.504 71.544 48.992 71.652 48.128ZM83.856 55.868L80.76 54.32C79.896 54.5 78.96 54.572 78.024 54.572H61.356C59.988 54.572 58.152 54.5 56.64 54.32V59.072C58.152 58.928 60.168 58.892 61.392 58.892H78.96C78.96 62.78 78.456 69.98 77.412 72.248C77.052 73.148 76.548 73.544 75.396 73.544C73.956 73.544 72.12 73.328 70.32 73.04L70.896 77.828C72.66 77.972 74.784 78.152 76.872 78.152C79.32 78.152 80.724 77.18 81.48 75.38C83.028 71.708 83.496 61.664 83.64 57.74C83.64 57.344 83.748 56.444 83.856 55.868ZM135.516 53.636L131.736 51.764C131.124 52.052 129.324 52.232 128.388 52.232C126.228 52.232 119.316 52.232 117.048 52.232C115.824 52.232 114.168 52.124 112.98 51.98V57.056C114.276 56.948 115.608 56.876 117.084 56.876C119.352 56.876 126.696 56.876 129.504 56.876C129.396 59.468 127.848 68.72 127.272 71.96H132.564C133.068 68.684 134.652 58.928 135.12 55.292C135.156 55.004 135.336 54.14 135.516 53.636ZM109.056 70.484V75.74C110.244 75.596 111.504 75.524 112.62 75.524H136.596C137.46 75.524 138.972 75.596 139.98 75.74V70.484C139.044 70.628 137.892 70.772 136.596 70.772H112.62C111.504 70.772 110.208 70.7 109.056 70.484ZM173.604 51.296C174.18 54.212 177.672 72.356 178.212 75.596C178.464 76.676 178.536 77.9 178.716 79.232L183.9 78.332C183.576 77.144 183.252 75.848 183 74.804C182.244 71.132 178.68 52.916 178.32 50.54C178.176 49.676 178.032 48.452 177.96 47.768L172.848 48.596C173.136 49.424 173.388 50.288 173.604 51.296ZM163.776 55.904L164.748 60.872C165.972 60.548 166.908 60.332 168.024 60.116C170.724 59.648 183.108 57.668 186.924 57.056C188.004 56.912 189.48 56.696 190.272 56.66L189.372 51.908C188.508 52.16 187.14 52.484 186.024 52.664C182.784 53.312 170.184 55.256 167.124 55.616C165.972 55.76 164.892 55.832 163.776 55.904ZM163.812 66.452L164.82 71.276C165.612 71.06 166.872 70.844 168.42 70.556C171.984 69.872 184.944 67.748 189.516 67.064C190.848 66.848 192.324 66.596 193.296 66.524L192.36 61.772C191.388 62.024 190.056 62.348 188.652 62.6C184.512 63.392 171.372 65.516 167.52 66.056C166.404 66.236 164.748 66.416 163.812 66.452ZM19.776 98.34L14.844 98.196C14.484 101.976 13.692 106.116 12.648 109.5C11.136 114.36 9.768 116.664 8.22 116.664C6.852 116.664 5.412 114.9 5.412 111.264C5.412 106.728 9.588 100.5 17.22 100.5C23.448 100.5 26.976 104.532 26.976 110.184C26.976 115.476 23.376 118.752 18.804 119.868C17.832 120.084 16.824 120.264 15.42 120.444L18.156 124.692C27.228 123.288 31.872 117.924 31.872 110.364C31.872 102.48 26.22 96.288 17.328 96.288C8.004 96.288 0.768 103.416 0.768 111.696C0.768 117.78 4.08 122.208 8.112 122.208C12.036 122.208 15.132 117.744 17.292 110.472C18.552 106.224 19.272 102.012 19.776 98.34ZM80.4 96.036C80.4 94.956 81.264 94.056 82.344 94.056C83.424 94.056 84.324 94.956 84.324 96.036C84.324 97.116 83.424 97.98 82.344 97.98C81.264 97.98 80.4 97.116 80.4 96.036ZM78.204 96.036C78.204 98.34 80.04 100.176 82.344 100.176C84.648 100.176 86.52 98.34 86.52 96.036C86.52 93.732 84.648 91.86 82.344 91.86C80.04 91.86 78.204 93.732 78.204 96.036ZM73.236 94.596H67.908C68.016 95.244 68.196 96.792 68.196 97.728C68.196 99.924 68.196 103.776 68.196 105.036C68.196 106.728 68.196 118.104 68.16 119.472C68.124 120.408 67.8 120.732 66.864 120.732C65.964 120.732 64.38 120.624 62.868 120.336L63.3 124.8C65.1 125.016 67.224 125.088 69.132 125.088C71.688 125.088 72.912 123.792 72.912 121.704C72.912 118.68 72.912 107.952 72.912 105.036C72.912 102.948 72.912 99.888 72.912 97.764C72.912 96.864 73.128 95.1 73.236 94.596ZM55.596 100.356V105.108C56.604 105 57.972 104.964 59.052 104.964C61.428 104.964 78.744 104.964 81.336 104.964C82.308 104.964 83.712 105 84.828 105.108V100.392C83.856 100.5 82.308 100.608 81.3 100.608C78.708 100.608 61.248 100.608 59.052 100.608C57.936 100.608 56.676 100.5 55.596 100.356ZM64.776 110.112L60.672 108.168C59.196 111.228 56.316 115.188 53.904 117.492L57.828 120.12C59.772 117.996 63.12 113.28 64.776 110.112ZM80.22 108.06L76.296 110.184C78.06 112.416 80.616 116.772 82.164 119.868L86.376 117.528C84.936 114.9 82.056 110.364 80.22 108.06ZM109.776 106.332V112.02C111.144 111.912 113.556 111.804 115.572 111.804C119.82 111.804 131.664 111.804 134.94 111.804C136.452 111.804 138.288 111.984 139.152 112.02V106.332C138.18 106.404 136.596 106.584 134.904 106.584C131.7 106.584 119.82 106.584 115.572 106.584C113.7 106.584 111.108 106.44 109.776 106.332ZM171.768 119.58C171.768 120.984 171.66 123.18 171.408 124.584H177.06C176.88 123.108 176.736 120.588 176.736 119.58C176.736 116.916 176.7 102.84 176.7 98.88C176.7 97.368 176.88 95.82 177.024 94.524H171.408C171.66 95.82 171.768 97.584 171.768 98.88C171.768 101.904 171.768 116.808 171.768 119.58ZM175.656 103.848V109.032C179.58 110.328 185.628 112.632 189.732 114.756L191.748 109.752C188.22 108.024 180.444 105.18 175.656 103.848ZM30.504 145.06L26.94 142.792C25.968 143.008 24.816 143.044 24.132 143.044C22.116 143.044 10.164 143.044 7.464 143.044C6.276 143.044 4.26 142.9 3.18 142.756V147.832C4.116 147.796 5.808 147.688 7.464 147.688C10.164 147.688 22.044 147.688 24.24 147.688C23.736 150.784 22.404 154.852 19.992 157.876C17.076 161.512 13.044 164.644 5.88 166.3L9.804 170.62C16.248 168.568 21.036 164.968 24.276 160.684C27.3 156.652 28.884 151.072 29.712 147.544C29.892 146.788 30.144 145.744 30.504 145.06ZM76.728 146.608H72.048C72.228 147.616 72.336 148.732 72.336 149.632C72.552 154.348 72.696 162.772 72.696 166.804C72.696 167.56 72.408 167.92 71.724 167.92C70.788 167.92 69.06 167.812 67.62 167.632L67.872 171.736C69.492 171.844 71.724 171.916 73.452 171.916C75.576 171.916 77.016 170.62 76.98 168.748C76.908 163.024 76.692 154.348 76.548 149.632C76.548 148.66 76.584 147.508 76.728 146.608ZM59.376 151.576V156.04C60.384 155.968 61.716 155.896 62.76 155.896C64.308 155.896 79.932 155.896 81.048 155.896C81.804 155.896 82.956 155.932 83.784 155.968V151.576C83.172 151.684 81.768 151.792 80.832 151.792C79.428 151.792 64.668 151.792 62.652 151.792C61.68 151.792 60.24 151.72 59.376 151.576ZM57.828 165.58L60.96 169.144C66 166.516 71.832 161.44 73.704 158.056L73.632 154.564L71.292 154.528C69.348 158.056 63.624 162.916 57.828 165.58ZM135.372 141.064H129.936C130.08 142.072 130.188 143.224 130.188 144.7C130.188 146.248 130.188 149.704 130.188 151.504C130.188 157.12 129.684 159.82 127.236 162.52C125.04 164.86 122.16 166.228 118.56 167.056L122.34 171.052C124.968 170.188 128.676 168.46 131.052 165.832C133.752 162.88 135.264 159.568 135.264 151.792C135.264 150.028 135.264 146.536 135.264 144.7C135.264 143.224 135.3 142.072 135.372 141.064ZM118.704 141.388H113.484C113.592 142.216 113.628 143.476 113.628 144.124C113.628 145.708 113.628 154.204 113.628 156.256C113.628 157.372 113.52 158.776 113.448 159.424H118.704C118.632 158.596 118.56 157.192 118.56 156.292C118.56 154.276 118.56 145.708 118.56 144.124C118.56 143.008 118.632 142.216 118.704 141.388ZM185.124 140.164H179.976C180.156 141.136 180.228 142.288 180.336 143.836C180.624 149.776 180.696 159.64 180.696 164.608C180.696 165.616 180.372 166.084 179.472 166.084C178.248 166.084 176.304 165.94 174.648 165.688L175.08 170.368C177.132 170.512 179.112 170.584 181.308 170.584C184.044 170.584 185.376 169.252 185.34 166.948C185.268 159.676 185.016 149.776 184.908 143.836C184.872 142.684 184.944 141.316 185.124 140.164ZM164.568 146.176V150.964C165.828 150.892 167.34 150.82 168.672 150.82C170.652 150.82 188.256 150.82 189.66 150.82C190.632 150.82 192.036 150.856 193.152 150.892V146.14C192.288 146.248 190.596 146.428 189.444 146.428C187.68 146.428 171.048 146.428 168.528 146.428C167.304 146.428 165.576 146.284 164.568 146.176ZM162.624 163.312L165.936 167.056C172.128 163.78 178.5 158.128 181.416 153.772L181.38 149.92H179.04C176.448 154.168 170.148 159.712 162.624 163.312Z" fill="#3A6073"/>
</svg>
