<svg width="23" height="20" viewBox="0 0 23 20" fill="none" xmlns="http://www.w3.org/2000/svg">
<path d="M23 2.37237C22.1542 2.77326 21.2456 3.04414 20.2904 3.16658C21.276 2.53575 22.0133 1.5429 22.3649 0.373289C21.4389 0.961624 20.4254 1.37575 19.3686 1.59766C18.6579 0.78596 17.7165 0.247955 16.6907 0.0671694C15.6648 -0.113617 14.6119 0.0729309 13.6953 0.59785C12.7787 1.12277 12.0498 1.95669 11.6217 2.97014C11.1936 3.98359 11.0903 5.11988 11.3278 6.20257C9.4515 6.1018 7.61598 5.58015 5.94036 4.67147C4.26474 3.76279 2.78646 2.48739 1.60147 0.928047C1.19629 1.67567 0.963314 2.54248 0.963314 3.46563C0.962862 4.29667 1.15419 5.11499 1.52031 5.84798C1.88644 6.58096 2.41604 7.20595 3.06214 7.66748C2.31284 7.64198 1.58007 7.42541 0.924822 7.03579V7.1008C0.924746 8.26638 1.30167 9.39609 1.99164 10.2982C2.68161 11.2004 3.64213 11.8194 4.71021 12.0503C4.01511 12.2515 3.28635 12.2811 2.57897 12.137C2.88032 13.1399 3.46732 14.0169 4.25779 14.6452C5.04827 15.2735 6.00265 15.6217 6.98732 15.641C5.31578 17.0446 3.25145 17.806 1.1264 17.8026C0.749968 17.8027 0.373855 17.7792 0 17.7322C2.15705 19.2157 4.66801 20.003 7.23245 20C15.9134 20 20.6591 12.3092 20.6591 5.63915C20.6591 5.42245 20.654 5.20358 20.6449 4.98688C21.568 4.27281 22.3648 3.38859 22.998 2.37562L23 2.37237Z" fill="#3A6073"/>
</svg>
